<?xml version="1.0" encoding="UTF-8" standalone="no"?>
<!-- Created with Inkscape (http://www.inkscape.org/) -->

<svg
   xmlns:dc="http://purl.org/dc/elements/1.1/"
   xmlns:cc="http://creativecommons.org/ns#"
   xmlns:rdf="http://www.w3.org/1999/02/22-rdf-syntax-ns#"
   xmlns:svg="http://www.w3.org/2000/svg"
   xmlns="http://www.w3.org/2000/svg"
   xmlns:sodipodi="http://sodipodi.sourceforge.net/DTD/sodipodi-0.dtd"
   xmlns:inkscape="http://www.inkscape.org/namespaces/inkscape"
   id="svg2"
   version="1.1"
   inkscape:version="0.91 r13725"
   xml:space="preserve"
   width="164.2384"
   height="193.07571"
   viewBox="0 0 164.2384 193.07571"
   sodipodi:docname="sapy.svg"
   inkscape:export-filename="D:\TESIPHD\frontespizio\sapy.png"
   inkscape:export-xdpi="300"
   inkscape:export-ydpi="300"><metadata
     id="metadata8"><rdf:RDF><cc:Work
         rdf:about=""><dc:format>image/svg+xml</dc:format><dc:type
           rdf:resource="http://purl.org/dc/dcmitype/StillImage" /><dc:title></dc:title></cc:Work></rdf:RDF></metadata><defs
     id="defs6" /><sodipodi:namedview
     pagecolor="#ffffff"
     bordercolor="#666666"
     borderopacity="1"
     objecttolerance="10"
     gridtolerance="10"
     guidetolerance="10"
     inkscape:pageopacity="0"
     inkscape:pageshadow="2"
     inkscape:window-width="1920"
     inkscape:window-height="1027"
     id="namedview4"
     showgrid="false"
     inkscape:zoom="1"
     inkscape:cx="308.38412"
     inkscape:cy="-25.073312"
     inkscape:window-x="-8"
     inkscape:window-y="-8"
     inkscape:window-maximized="1"
     inkscape:current-layer="g10"
     fit-margin-top="10"
     fit-margin-left="10"
     fit-margin-right="10"
     fit-margin-bottom="10" /><g
     id="g10"
     inkscape:groupmode="layer"
     inkscape:label="ML_sinistra_neg_202EC"
     transform="matrix(1.25,0,0,-1.25,-435.03737,488.95364)"><g
       id="g12"
       transform="matrix(0.85858329,0,0,-0.85858329,116.18877,26.784835)"><path
         d="m 346.5403,-415.07688 c -37.06148,0 -67.19509,36.17141 -67.19509,80.63039 0,44.46823 30.13361,80.63594 67.19509,80.63594 37.05501,0 67.20156,-36.16771 67.20156,-80.63594 0,-44.45898 -30.14655,-80.63039 -67.20156,-80.63039 z"
         style="fill:#6f0a19;fill-opacity:1;fill-rule:evenodd;stroke:none"
         id="path14"
         inkscape:connector-curvature="0" /><path
         d="m 398.60976,-310.51004 c -0.23338,0.74096 -0.81503,1.89684 -1.84867,2.7304 0,0 -0.83357,-0.75947 -0.83357,-0.75947 0.92249,-0.60016 1.64492,-1.66529 1.83386,-2.25806 0.44087,-1.38928 0.10736,-2.60259 -1.09661,-3.00085 -0.59277,-0.20376 -1.13921,0.23155 -1.66344,0.73171 -0.83728,0.76873 -1.52264,1.7227 -2.50441,2.29693 -0.75947,0.4631 -1.62638,0.7632 -2.83044,0.36122 -1.64862,-0.55572 -2.1858,-2.54702 -1.59304,-4.43644 0.20376,-0.62982 0.5557,-1.37077 1.06141,-2.32474 0.77243,0.21301 1.32815,0.39826 1.77273,0.54646 0.2408,0.0833 0.46865,0.18513 0.3575,0.54644 -0.0742,0.23154 -0.21302,0.37047 -1.07993,0.25008 -0.37049,-0.0649 -0.89286,0.25006 -1.25407,1.37075 -0.37603,1.20405 -0.15744,2.334 0.9725,2.71374 0.79652,0.2686 1.98205,-1.17256 2.4544,-1.70975 0.5372,-0.59646 1.16145,-1.27814 1.91723,-1.65231 0.68538,-0.36122 1.53746,-0.4631 2.43032,-0.15744 1.96723,0.65759 2.53404,2.7693 1.90423,4.75135 z m -11.87467,2.21175 c -0.0742,0.25933 0.21301,0.33342 0.41214,0.42605 0,0 8.66916,4.16784 8.66916,4.16784 0,0 -0.64834,1.81533 -0.64834,1.81533 0,0 -8.81734,-4.24193 -8.81734,-4.24193 -0.56034,-0.26676 -0.44456,-0.24083 -0.77335,0.25192 -0.13885,0.22229 -0.26397,0.53718 -0.54184,0.3964 -0.27322,-0.12975 -0.32879,-0.37048 -0.16218,-0.69279 0.22229,-0.40011 0.56962,-1.07438 0.73171,-1.41892 0.15288,-0.35196 0.37973,-0.94472 0.53718,-1.37817 0.12975,-0.34454 0.35196,-0.4557 0.61593,-0.32603 0.20838,0.10376 0.14814,0.38161 -0.0231,1.0003 z m 3.82053,9.29152 c 1.0892,0.6928 1.51525,1.87091 0.81505,3.03792 -0.28156,0.47049 -0.64278,0.90765 -1.00029,1.26703 -0.10566,0.10376 -0.11116,0.11115 -0.20746,0.0482 0,0 -3.77979,-2.43774 -3.77979,-2.43774 0,0 0.30566,-0.50756 0.30566,-0.50756 1.21794,-2.00057 2.58869,-2.23396 3.86683,-1.40781 z m -5.14961,-1.90053 c 0.90766,0.58536 1.51895,1.40039 0.65295,2.83414 0,0 -0.33805,0.56683 -0.33805,0.56683 0,0 -3.11664,-2.01909 -3.11664,-2.01909 -0.2408,-0.15934 -0.32878,-0.20376 -0.19448,-0.42605 0,0 0.14814,-0.25933 0.14814,-0.25933 0.66685,-1.09291 1.7505,-1.40782 2.84805,-0.6965 z m 6.00171,0.17773 c -1.51895,-0.98177 -2.89342,-0.38159 -3.94002,0.72243 0.0871,-1.12995 -0.35288,-2.07467 -1.37167,-2.72301 -1.14848,-0.74094 -2.87584,-0.15933 -3.8437,1.44486 -0.3288,0.53721 -0.5696,1.0929 -0.90304,1.6375 -0.21765,0.36308 -0.61128,0.93731 -0.81968,1.17813 -0.16199,0.18513 -0.34269,0.37047 -0.4631,0.57423 -0.15743,0.25933 -0.0926,0.5372 0.1343,0.68538 0.19913,0.11856 0.29638,0.0742 0.61127,-0.40751 0.38438,-0.56684 0.477,-0.48163 0.94935,-0.17774 0,0 0.36122,0.23339 0.36122,0.23339 0,0 7.89205,5.08293 7.89205,5.08293 0,0 0.67613,-1.30407 0.83359,-1.56341 0.33712,-0.51867 0.6761,-0.74094 1.0225,-1.3263 1.18183,-1.93388 1.18553,-4.29751 -0.46309,-5.36079 z m -17.76433,12.50357 c -0.20376,0.3964 -0.14815,0.94472 -0.0742,1.27814 0,0 2.19045,10.06584 2.19045,10.06584 0,0 -0.98639,0.86135 -0.98639,0.86135 -3.61215,-2.50997 -6.01469,-3.87148 -8.95998,-6.00171 -0.22227,-0.15743 -0.33343,-0.30565 -0.59739,-0.13903 -0.48161,0.30565 -0.62981,0.25933 -0.75947,0.0556 -0.14815,-0.23154 -0.088,-0.49088 0.2084,-0.64834 0.4214,-0.21301 1.08827,-0.6372 1.44021,-0.84098 0.44458,-0.25192 0.76411,-0.037 1.11606,0.20378 0,0 7.21409,5.05515 7.21409,5.05515 0,0 -1.9033,-8.47465 -1.9033,-8.47465 -0.11116,-0.54461 -1.12534,0.45569 -1.41244,0.0114 -0.14815,-0.24081 -0.037,-0.41864 0.25933,-0.61128 0.53718,-0.35196 1.44484,-1.29668 1.93109,-1.88202 0.23618,-0.26675 0.53256,-0.19264 0.68539,0.037 0.0787,0.14074 -0.0926,0.51125 -0.35196,1.02992 z m -15.87397,9.5379 c -0.6298,0.30564 -0.67148,0.50014 -0.44919,1.34298 0.25932,1.00954 2.44514,9.28041 2.44514,9.28041 0,0 -1.98204,0.51867 -1.98204,0.51867 0,0 -2.16266,-8.45612 -2.16266,-8.45612 0,0 -2.19045,8.43761 -2.19045,8.43761 0,0 -0.90303,0.30563 -0.90303,0.30563 0,0 -4.9829,-7.391 -4.9829,-7.391 0,0 0.57054,8.4376 0.57054,8.4376 0,0 -1.74124,0.50014 -1.74124,0.50014 0,0 -0.62981,-9.64164 -0.62981,-9.64164 -0.0704,-0.98176 -0.21303,-1.20404 -0.79652,-1.25036 -0.48163,-0.0463 -0.69466,-0.17602 -0.73171,-0.4353 -0.0611,-0.40752 0.29083,-0.47235 0.4631,-0.48163 0.47237,-0.009 1.71345,0.0463 2.12098,0.0277 0.35196,-0.019 0.53719,0.037 0.81506,0.4353 0,0 5.13107,7.81706 5.13107,7.81706 0,0 2.31919,-8.92847 2.31919,-8.92847 0.125,-0.43533 0.40289,-0.64834 0.72243,-0.74096 0.42142,-0.10186 1.44486,-0.49089 1.88479,-0.61128 0.17129,-0.0463 0.59739,-0.0742 0.65297,0.30564 0.037,0.27785 -0.14814,0.33343 -0.55572,0.52793 z m -14.85052,2.08392 c -0.25934,0.037 -0.48163,0.16674 -0.67241,0.45384 0,0 -6.26476,8.87289 -6.26476,8.87289 0,0 -1.28741,-0.16673 -1.28741,-0.16673 -0.65296,-4.44571 -1.12994,-7.20576 -1.61157,-10.89198 -0.0279,-0.26861 -0.009,-0.45384 -0.30563,-0.54646 -0.54646,-0.15744 -0.60665,-0.30564 -0.55572,-0.53718 0.0649,-0.26861 0.30101,-0.39826 0.61129,-0.27787 0.43531,0.17603 1.19015,0.389 1.57453,0.52793 0.47235,0.16673 0.54644,0.55571 0.60202,0.98176 0,0 1.10678,8.90996 1.10678,8.90996 0,0 4.9505,-7.13167 4.9505,-7.13167 0.30934,-0.45384 -1.0929,-0.53719 -0.96325,-1.07439 0.0685,-0.26859 0.27787,-0.31489 0.61129,-0.21302 0.42605,0.14815 2.1395,0.28713 2.6026,0.28713 0.35195,0.009 0.50941,0.12974 0.46309,0.44456 -0.0334,0.22229 -0.25006,0.28712 -0.86135,0.36122 z m -12.67492,-3.37132 c -0.2408,-0.0833 -0.31954,0.21301 -0.42142,0.41677 0,0 -4.25121,8.66915 -4.25121,8.66915 0,0 -1.73661,-0.7317 -1.73661,-0.7317 0,0 4.32069,-8.80806 4.32069,-8.80806 0.28711,-0.57423 0.25006,-0.46309 -0.2084,-0.80577 -0.20839,-0.15744 -0.51403,-0.29638 -0.37047,-0.57425 0.12974,-0.27785 0.37047,-0.32417 0.68075,-0.14814 0.3751,0.2408 1.02344,0.6298 1.35224,0.79651 0.32417,0.17603 0.8984,0.42605 1.31982,0.60202 0.31489,0.13885 0.42142,0.37047 0.29175,0.64834 -0.1066,0.21302 -0.37975,0.13885 -0.97714,-0.0649 z m -7.98837,0.87987 c -1.7181,2.27844 -3.89002,3.19537 -6.20549,1.33372 -0.61127,-0.49088 -1.05122,-0.88914 -1.35223,-1.30593 -0.18532,-0.25006 -0.16199,-0.27785 0.0973,-0.62981 0,0 5.18202,-6.86122 5.18202,-6.86122 0.23155,-0.31489 0.37512,-0.31489 0.63446,-0.0926 0,0 1.13457,0.90766 1.13457,0.90766 2.9036,2.32288 2.01909,4.6291 0.50941,6.64818 z m 1.74122,1.08364 c 1.98206,-2.63036 1.27814,-5.98317 -1.4078,-8.13195 -0.66222,-0.52607 -1.1068,-0.85949 -1.4958,-1.14846 -0.31953,-0.2297 -0.6437,-0.46309 -0.94935,-0.71131 -0.32415,-0.25934 -0.73169,-0.62983 -0.92156,-0.86321 -0.16673,-0.17413 -0.3288,-0.38901 -0.51403,-0.53721 -0.2084,-0.16673 -0.47236,-0.17413 -0.65296,0.0556 -0.20376,0.27045 0.037,0.44458 0.31491,0.6965 0.50014,0.44456 0.41215,0.52607 0.0694,0.98916 0,0 -5.96003,7.90968 -5.96003,7.90968 0.88914,0.61127 1.44021,0.97249 2.17192,1.71345 0.32415,0.33343 0.60664,0.64832 0.82431,0.81503 3.06568,2.46367 6.39533,2.02837 8.52093,-0.78726 z m -7.05294,-12.2257 c -0.17128,-0.17413 -0.44456,-0.20376 -0.7641,-0.11116 0,0 -10.05378,2.83414 -10.05378,2.83414 0,0 -0.89377,-0.95211 -0.89377,-0.95211 2.17191,-3.90113 3.56119,-6.45741 5.41357,-9.63239 0.14814,-0.2408 0.27322,-0.37047 0.1066,-0.64092 -0.33343,-0.47051 -0.29638,-0.61869 -0.11115,-0.76689 0.20838,-0.17774 0.46772,-0.12235 0.64833,0.16673 0.2269,0.42605 0.68537,1.07439 0.90766,1.43374 0.27787,0.43717 0.0926,0.78913 -0.125,1.1596 0,0 -4.63094,7.76147 -4.63094,7.76147 0,0 8.18751,-2.37104 8.18751,-2.37104 0.51867,-0.15934 -0.51865,-1.12997 -0.0973,-1.46339 0.20841,-0.15934 0.40754,-0.0666 0.61129,0.2297 0.24081,0.4001 0.50014,0.81504 0.72243,1.12253 0.22692,0.29638 0.44456,0.52609 0.74557,0.87803 0.2362,0.27045 0.22229,0.52979 0.0133,0.6965 -0.12974,0.1 -0.25933,0.0556 -0.68075,-0.34454 z m -6.81675,-9.82503 c -0.0973,0.019 -0.20839,0 -0.57886,0.037 0,0 -0.22229,-0.77801 -0.22229,-0.77801 0,0 -1.44486,-3.0305 -1.44486,-3.0305 0,0 -8.94237,4.53092 -8.94237,4.53092 0,0 -0.99565,-1.63008 -0.99565,-1.63008 0,0 9.10908,-4.63096 9.10908,-4.63096 -0.39363,-0.88914 -1.1531,-2.44514 -1.1531,-2.44514 -0.43995,-0.90026 -0.55572,-0.57423 -1.18553,-0.389 -0.29175,0.0816 -0.59276,0.11855 -0.69926,-0.0926 -0.14815,-0.32601 -0.019,-0.45567 0.27784,-0.61127 0.34733,-0.17774 0.7919,-0.38901 1.23648,-0.59276 0.52328,-0.25008 0.69001,0 0.85672,0.40751 0.20376,0.47051 0.38436,0.87803 0.66685,1.53748 0.8521,1.96353 1.81533,3.90853 2.73689,5.835 0.17129,0.35935 0.43068,0.67427 0.64834,0.98918 0.0601,0.10376 0.12975,0.17773 0.16673,0.25192 0.037,0.0926 0.1343,0.3964 -0.16199,0.5446 -0.15288,0.0852 -0.17128,0.0742 -0.31491,0.0666 z m -15.91194,-10.10471 c -0.25471,-0.74097 -0.45847,-2.02837 -0.12975,-3.3343 0,0 1.12995,0.0926 1.12995,0.0926 -0.40289,1.0466 -0.35194,2.34698 -0.16199,2.93602 0.46311,1.38928 1.44023,2.13766 2.63038,1.72273 0.59276,-0.21489 0.77338,-0.88914 0.90305,-1.62085 0.22229,-1.1355 0.21764,-2.32472 0.66222,-3.38986 0.33343,-0.84282 0.85673,-1.62082 2.04688,-2.04687 1.64399,-0.58349 3.2324,0.67613 3.86221,2.55629 0.20377,0.62981 0.35195,1.44486 0.50478,2.50997 -0.74096,0.30935 -1.29668,0.50941 -1.74124,0.66129 -0.22692,0.089 -0.48162,0.15384 -0.59276,-0.20745 -0.0742,-0.23155 -0.0417,-0.43531 0.7178,-0.87063 0.31952,-0.18513 0.56035,-0.75948 0.18986,-1.87089 -0.39364,-1.20406 -1.22257,-1.96353 -2.35252,-1.56527 -0.78263,0.27787 -0.89377,2.16729 -0.96323,2.88972 -0.0787,0.81505 -0.18532,1.74124 -0.56035,2.50997 -0.3427,0.71131 -0.9586,1.31519 -1.86165,1.6375 -1.94962,0.6965 -3.63066,-0.63722 -4.28362,-2.60999 z m 85.74943,17.69948 c 0.87989,0.79652 1.84312,2.03762 0.34733,3.77886 -0.14359,0.16673 -0.22229,0.24822 -0.32879,0.34084 0,0 -3.37598,-3.10089 -3.37598,-3.10089 -0.12974,-0.11116 -0.18057,-0.21488 0.004,-0.42605 0,0 0.37047,-0.42605 0.37047,-0.42605 1.12532,-1.30778 2.00983,-1.05586 2.98232,-0.16673 z m 8.19772,2.74893 c -0.12045,-0.11115 -0.25562,-0.0926 -0.35196,-0.0742 -0.35194,0.0742 -0.77892,0.11116 -1.12625,0.0666 -1.61157,-0.21487 -3.07957,-0.31489 -4.70503,-0.51865 0.31027,-0.98176 0.36585,-2.75265 -0.9123,-3.92706 -1.31056,-1.19664 -3.0379,-0.58534 -4.11229,0.66687 -0.46309,0.53719 -0.88451,1.13735 -1.3476,1.68566 -0.26397,0.3149 -0.86599,0.9447 -1.11144,1.14848 -0.18513,0.15554 -0.40288,0.30378 -0.55571,0.48903 -0.18058,0.20375 -0.24543,0.43716 -0.019,0.64833 0.2408,0.21488 0.42142,0.0666 0.7039,-0.24082 0.46772,-0.48161 0.55571,-0.40751 0.97713,-0.019 0,0 7.15944,6.58705 7.15944,6.58705 0,0 1.08365,-1.59304 1.08365,-1.59304 0,0 -3.26019,-3.00085 -3.26019,-3.00085 0,0 0.13885,-0.16673 0.13885,-0.16673 0.20377,-0.24082 0.30565,-0.35196 0.43532,-0.59276 0,0 3.61676,0.389 3.61676,0.389 1.19017,0.14814 2.09319,0.44456 3.01938,-0.64094 0.23711,-0.26673 0.48163,-0.79652 0.36677,-0.90766 z m -38.7101,4.9755 c -0.0685,0.32231 0.2834,0.6372 0.59832,0.32231 0.97249,-0.98918 2.12466,-2.97123 2.88414,-6.20548 2.40809,-10.06584 0.6298,-22.94913 0.6298,-22.97692 -0.72612,-5.46081 4.24196,-8.57281 8.34961,-10.57709 1.44949,-0.70389 2.69059,-1.74124 3.43153,-2.63964 0.75948,-0.87988 1.41245,-2.25991 1.85238,-3.72328 1.27814,-4.31048 3.74088,-9.26745 9.34898,-9.54532 0.037,0 13.23061,-0.96693 22.93338,-5.07182 3.10088,-1.31519 4.87546,-2.90823 5.70533,-4.01966 0.24822,-0.36305 -0.12595,-0.64462 -0.44087,-0.51865 -9.09889,3.66029 -17.894,5.44969 -27.47543,5.55898 0,0 -0.92154,0.037 -0.92154,0.037 -3.33893,0.0797 -6.31662,1.48746 -8.44131,3.69921 -3.35744,3.50099 -2.50071,9.60088 -4.69114,12.01823 -2.20433,2.41736 -7.76148,2.723 -11.09576,6.52037 -2.01355,2.29696 -3.14349,5.54789 -2.6341,8.78029 0.004,0.004 0.12975,1.00956 0.12975,1.02807 1.60231,9.23412 1.89314,17.90326 -0.16294,27.31335 z m 5.57103,-3.38246 c -0.0694,0.19636 0.14814,0.32603 0.31952,0.19636 0.88451,-0.62981 1.73661,-2.23398 2.92213,-4.62354 1.35224,-2.74152 4.01967,-11.36251 4.15859,-18.31819 0.0649,-2.69522 -0.0787,-5.38116 -0.39826,-8.03933 0,0 -0.0833,0 -0.0833,0 -2.11634,0.1945 -3.7094,1.91721 -3.73254,3.95483 0.0231,0.25934 0.0417,0.53719 0.0601,0.8058 0.7178,8.64134 -0.40752,17.47719 -3.24628,26.02407 z m 6.31661,-6.59447 c -0.20377,0.41863 0,0.52979 0.31953,0.16673 1.44486,-1.61157 2.99622,-3.23054 4.05671,-5.16814 3.22314,-5.87204 4.63002,-12.2609 4.63002,-18.52195 0,-1.35223 -0.0742,-2.70447 -0.18513,-4.03817 -0.0787,-0.28343 -0.0742,-0.52423 -0.0231,-0.60204 0.0556,-0.089 0.25008,-0.0833 0.56034,-0.089 1.37077,-0.11476 2.73689,-0.29082 4.09376,-0.53163 6.2981,-1.11143 12.48041,-3.59363 17.80693,-7.74296 1.7542,-1.36519 3.10274,-3.14348 4.4735,-4.82544 0.30564,-0.37975 0.16674,-0.55572 -0.22229,-0.28157 -7.87261,5.5238 -16.71866,8.70064 -25.80458,9.21374 -1.00028,0.0334 -2.30529,0.51867 -3.33335,1.33002 -0.63907,0.50014 -1.12532,1.12995 -1.27352,1.82459 -0.38899,0.93916 -0.53719,1.98204 -0.42605,2.7693 1.11143,8.85438 -0.51402,17.93105 -4.67261,26.49644 z m 19.46758,-37.71261 c 6.96587,-1.3763 15.18119,-5.34411 17.69857,-7.14091 2.19692,-1.56341 3.64548,-2.67114 4.1308,-3.63437 0.0926,-0.19081 -0.0742,-0.38159 -0.25933,-0.27785 -8.08379,4.26416 -16.80015,6.78711 -25.61749,7.63179 -0.26859,0.0315 -0.54646,0.0556 -0.81968,0.0742 -2.03762,0.3964 -3.4871,2.23582 -3.2926,4.37532 2.73226,-0.14815 5.45526,-0.49089 8.15973,-1.02809 z m -34.06341,-1.84681 c 1.05585,0 1.90795,0.43346 1.90795,0.79096 0,0.35751 -0.8521,0.79654 -1.90795,0.79654 -1.0466,0 -1.8987,-0.43903 -1.8987,-0.79654 0,-0.3575 0.8521,-0.79096 1.8987,-0.79096 z m -5.01994,-3.1046 c -3.28798,0 -3.08422,-0.81503 -3.16387,-1.06881 0,0 0.86691,-1.68382 3.18238,-1.68382 2.30065,0 2.92676,2.02651 2.92676,2.02651 0,0 -0.51867,0.72612 -2.94527,0.72612 z m 5.01994,9.2582 c -2.03391,0 -3.68252,-1.69492 -3.68252,-2.17654 0,-0.48163 7.37245,-0.48163 7.37245,0 0,0.48162 -1.65231,2.17654 -3.68993,2.17654 z m 4.91252,-9.2582 c -2.42107,0 -2.93048,-0.72612 -2.93048,-0.72612 0,0 0.61129,-2.02651 2.92676,-2.02651 2.30066,0 3.16666,1.68382 3.16666,1.68382 -0.0742,0.25378 0.12974,1.06881 -3.16294,1.06881 z m 5.44599,1.14108 c -0.14814,-1.53378 -0.35196,-4.31234 -0.40752,-5.77943 -4.24567,0 -8.74324,-3.24721 -10.00285,-5.26816 -1.25408,2.02095 -5.7609,5.26816 -10.00193,5.26816 -0.0601,1.46709 -0.25933,4.24565 -0.41216,5.77943 -0.29176,2.81005 0.70854,5.72756 2.57852,7.83 0.96323,1.08364 2.16729,2.1395 3.49729,2.75079 0.11476,0.0463 0.24081,0.0926 0.37417,0.14814 0,0 0.63537,0.27785 0.63537,0.27785 0.36121,0.1945 0.56499,0.46309 0.91693,0.72613 0.98546,0.70947 2.37104,0.66315 2.40809,0.66315 0.0463,0 1.42635,0.0463 2.41181,-0.66315 0.34824,-0.26304 0.552,-0.53163 0.92249,-0.72613 0,0 0.6335,-0.27785 0.6335,-0.27785 0.13525,-0.0556 0.25564,-0.10186 0.37603,-0.14814 1.32817,-0.61129 2.52758,-1.66715 3.49546,-2.75079 1.8709,-2.10244 2.87118,-5.01995 2.5748,-7.83 z m -18.49046,-19.76119 c -3.45932,2.11171 -4.4735,2.16727 -4.4735,2.16727 0,0 -0.0231,3.60845 5.14407,1.63011 1.81533,-0.6965 7.33543,-3.80665 6.40552,-5.10145 -1.57081,-2.17655 -4.2753,-0.41493 -7.07609,1.30407 z m 4.83841,4.70875 c -9.02016,5.18296 -12.1831,0.40012 -12.1831,0.40012 0,0 -3.43153,3.93815 2.24138,5.46822 5.99245,1.61341 10.04916,-2.04688 11.01611,-2.75263 1.7931,-1.31519 2.16357,-4.96808 -1.07439,-3.11571 z m 11.31805,-4.70875 c 3.46395,2.11171 4.61705,2.16727 4.61705,2.16727 0,0 -0.12045,3.60845 -5.28853,1.63011 -1.81442,-0.6965 -7.34378,-3.80665 -6.40461,-5.10145 1.56155,-2.17655 4.2753,-0.41493 7.07609,1.30407 z m -4.83841,4.70875 c 9.02016,5.18296 12.32202,0.40012 12.32202,0.40012 0,0 3.29723,3.93815 -2.37568,5.46822 -5.99707,1.61341 -10.05748,-2.04688 -11.02073,-2.75263 -1.78754,-1.31519 -2.16357,-4.96808 1.07439,-3.11571 z m 13.95212,6.69451 c -0.36584,0.49828 -2.0932,2.56738 -4.82083,2.86932 0.0417,1.12069 0.0601,2.58037 0.1343,3.75477 4.45036,-0.61127 6.35366,-3.95297 4.68653,-6.62409 z m -4.60779,9.87133 c -0.12045,1.30591 -0.45384,2.59887 -0.9864,3.82516 3.0379,-0.55572 4.9829,-2.3377 4.18638,-6.13509 -0.2825,0.60573 -1.556,2.00057 -3.19998,2.00057 0,0 0,0.30936 0,0.30936 z m -25.08956,-3.17313 c 0.0787,-1.17998 0.0973,-2.6341 0.13429,-3.76034 -2.723,-0.29822 -4.46424,-2.37105 -4.82083,-2.87119 -1.66713,2.67299 0.23155,6.01654 4.68654,6.63153 z m -0.0833,2.93786 c -1.63936,0 -3.04716,-1.4004 -3.32502,-2.00055 -0.81041,3.79737 1.26888,5.5701 4.30678,6.12581 -0.5233,-1.22073 -0.85672,-2.51369 -0.98176,-3.82146 0,0 0,-0.3038 0,-0.3038 z m 12.43873,-77.15532 c -35.69536,0 -64.73142,34.84512 -64.73142,77.67399 0,42.83073 29.03606,77.67214 64.73142,77.67214 35.69813,0 64.72864,-34.84141 64.72864,-77.67214 0,-42.82887 -29.03051,-77.67399 -64.72864,-77.67399 z m 0,153.04919 c -34.45426,0 -62.48076,-33.8152 -62.48076,-75.3752 0,-41.55444 28.0265,-75.36962 62.48076,-75.36962 34.45705,0 62.48356,33.81518 62.48356,75.36962 0,41.56 -28.02651,75.3752 -62.48356,75.3752 z m 20.9217,-87.02667 c -0.18513,3.30279 3.69921,-2.35993 0.5372,-6.82787 -2.57945,-3.67141 -4.95512,-8.64135 -1.75977,-13.10929 0.0279,-0.0241 7.31136,-10.73084 10.00193,-20.70961 0.866,-3.20091 0.69928,-5.54787 0.33342,-6.86492 -0.12045,-0.42605 -0.57423,-0.31305 -0.66685,0 -2.69059,9.25078 -6.63614,17.10118 -12.39611,24.50329 0,0 -0.51868,0.72057 -0.5233,0.72057 -1.97742,2.61001 -2.68133,5.76831 -2.25066,8.76547 0.82894,5.77386 6.99275,8.6469 6.72414,13.52236 z m 1.78663,-16.78441 c -0.93916,1.80422 -0.38345,4.05857 1.35223,5.2126 1.60232,-2.15617 2.98697,-4.45498 4.21417,-6.8538 3.17682,-6.18511 5.07089,-14.95612 5.20056,-18.00144 0.125,-2.64519 0.13429,-4.45682 -0.31954,-5.42376 -0.088,-0.1945 -0.33343,-0.18342 -0.37047,0.0222 -1.59304,8.85068 -4.92734,17.09376 -9.64165,24.36436 0,0 -0.4353,0.67982 -0.4353,0.67982 z m 3.76033,9.13779 c -1.16237,1.58194 -1.66251,5.28669 0.59276,6.17027 1.54674,0.60944 6.30273,0.0871 8.3774,-0.74094 0.38435,-0.15004 0.31026,-0.67797 0.004,-0.80208 -1.83849,-0.76689 -4.67726,-1.48562 -5.92761,-1.77828 4.18174,-6.27588 6.86768,-13.8132 6.86768,-21.91922 0,-2.19136 -0.56034,-4.33642 -1.04195,-6.42776 -0.1066,-0.47051 -0.33344,-0.47051 -0.35196,-0.002 -0.48162,9.46752 -3.3806,18.21446 -8.52095,25.49987 z m -45.62227,-12.29054 c 3.20463,4.46794 0.81968,9.43788 -1.75513,13.10929 -3.15368,4.46794 0.72243,10.13066 0.53719,6.82787 -0.26396,-4.87546 5.89057,-7.7485 6.72415,-13.52236 0.43068,-2.99716 -0.27786,-6.15546 -2.25528,-8.76547 0,0 -0.5233,-0.72057 -0.5233,-0.72057 -5.747,-7.40211 -9.70183,-15.25251 -12.39241,-24.50329 -0.0926,-0.31305 -0.54184,-0.42605 -0.66686,0 -0.35658,1.31705 -0.5233,3.66401 0.33343,6.86492 2.70447,9.97877 9.98432,20.68554 9.99821,20.70961 z m -8.57188,1.51155 c 1.22719,2.39882 2.61185,4.69763 4.15396,6.89085 1.79681,-1.19108 2.35253,-3.44543 1.42169,-5.24965 -0.15288,-0.22599 -0.29638,-0.45568 -0.44456,-0.67983 -4.70504,-7.27059 -8.03932,-15.51367 -9.63238,-24.36435 -0.037,-0.2056 -0.28248,-0.21672 -0.3751,-0.0222 -0.45847,0.96694 -0.43993,2.77857 -0.31491,5.42376 0.12974,3.04532 2.02373,11.81633 5.1913,18.00144 z m -1.2411,13.62796 c -1.24571,0.29266 -4.07522,1.01139 -5.92762,1.77828 -0.30101,0.12406 -0.37047,0.65204 0.0133,0.80208 2.07466,0.82801 6.83527,1.35038 8.37738,0.74094 2.25528,-0.88358 1.75977,-4.58833 0.58813,-6.17027 -5.13109,-7.28541 -8.03932,-16.03235 -8.51632,-25.49987 -0.019,-0.46865 -0.2408,-0.46865 -0.35194,0.002 -0.48163,2.09134 -1.04197,4.2364 -1.04197,6.42776 0,8.10602 2.68596,15.64334 6.85843,21.91922 z m 26.45662,38.83884 c 0,-0.019 0.12045,-1.02437 0.12406,-1.02807 0.50569,-3.2324 -0.615,-6.48333 -2.63408,-8.78029 -3.32967,-3.79737 -8.8868,-4.10301 -11.09113,-6.52038 -2.19045,-2.41734 -1.33373,-8.51723 -4.70042,-12.01822 -2.11634,-2.21175 -5.09868,-3.61956 -8.43759,-3.69921 0,0 -0.92156,-0.037 -0.92156,-0.037 -9.5768,-0.10926 -18.37098,-1.8987 -27.47543,-5.55899 -0.3149,-0.12595 -0.69464,0.15555 -0.43531,0.51866 0.82894,1.11143 2.59334,2.70447 5.7007,4.01966 9.70185,4.10489 22.89543,5.07182 22.93247,5.07182 5.61271,0.27787 8.07175,5.23483 9.35452,9.54532 0.43993,1.46337 1.0929,2.8434 1.85237,3.72328 0.74097,0.8984 1.98205,1.93574 3.43153,2.63964 4.10766,2.00427 9.07112,5.11628 8.34869,10.57708 0,0.0279 -1.78199,12.91109 0.61683,22.97692 0.77245,3.23426 1.92093,5.2163 2.89899,6.20549 0.31489,0.31489 0.66685,0 0.59276,-0.32232 -2.05245,-9.41009 -1.75977,-18.07922 -0.15743,-27.31335 z m -8.65524,-2.09318 c 0.019,-0.26861 0.037,-0.54646 0.0556,-0.8058 -0.0324,-2.03762 -1.61157,-3.76033 -3.72793,-3.95483 0,0 -0.0833,0 -0.0833,0 -0.31954,2.65817 -0.46309,5.34411 -0.39826,8.03933 0.1343,6.95568 2.80635,15.57667 4.15859,18.31819 1.18089,2.38956 2.03762,3.99373 2.91751,4.62354 0.17602,0.12974 0.38898,0 0.32415,-0.19636 -2.8434,-8.54688 -3.96409,-17.38273 -3.24629,-26.02407 z m -7.74295,-7.06684 c 0.11115,-0.78726 -0.037,-1.83014 -0.42605,-2.76931 -0.15288,-0.69464 -0.64371,-1.32444 -1.27814,-1.82458 -1.02344,-0.81136 -2.32938,-1.29668 -3.32966,-1.33003 -9.08592,-0.51309 -17.93567,-3.68993 -25.80365,-9.21373 -0.38899,-0.27415 -0.53719,-0.0983 -0.22692,0.28157 1.37076,1.68196 2.723,3.46024 4.47813,4.82544 5.32096,4.14933 11.50792,6.63153 17.806,7.74296 1.35224,0.2408 2.72301,0.41677 4.08913,0.53163 0.30565,0.006 0.50941,0 0.56034,0.089 0.0556,0.0778 0.0601,0.31861 -0.019,0.60204 -0.1157,1.3337 -0.18532,2.68594 -0.18532,4.03817 0,6.26104 1.40782,12.64991 4.63096,18.52195 1.06048,1.9376 2.61185,3.55657 4.05671,5.16814 0.3288,0.36308 0.5233,0.25192 0.31954,-0.16673 -4.15861,-8.5654 -5.78406,-17.64206 -4.67263,-26.49644 z m -6.63616,-10.18808 c 0.18987,-2.1395 -1.25499,-3.97892 -3.29261,-4.37532 -0.27784,-0.019 -0.55571,-0.0427 -0.81968,-0.0742 -8.81731,-0.84468 -17.53739,-3.36762 -25.62767,-7.63179 -0.18513,-0.10376 -0.35195,0.0871 -0.25933,0.27785 0.49551,0.96323 1.94037,2.07097 4.1447,3.63438 2.51462,1.7968 10.72529,5.7646 17.70413,7.14091 2.69057,0.5372 5.41357,0.87988 8.15046,1.02808 z m 24.20134,-58.24439 c -2.08022,2.37474 -2.45069,8.61913 -2.69149,11.42734 -2.08764,-1.86907 -5.14407,-4.58649 -7.98747,-4.668 -0.34733,-0.0133 -0.79189,0.0611 -0.38438,0.50014 1.38929,1.49672 4.64485,4.9792 6.18603,6.65004 0.72243,0.78913 1.51895,1.06512 2.25991,1.11699 0.41307,0.0222 0.66685,-0.004 0.87616,-0.037 0.14265,-0.004 0.54646,-0.15194 0.63909,-0.22971 0.25933,-0.15554 0.50939,-0.3501 0.7502,-0.5909 0.55015,-0.60018 0.94472,-1.3504 0.93916,-2.40995 -0.004,-2.34882 0.006,-8.84513 0.006,-11.37361 0.009,-0.64464 -0.36122,-0.64834 -0.59276,-0.3853 z m 2.62113,0.3853 c 0,2.52849 0.019,9.02479 0,11.37361 0,1.05955 0.3927,1.80977 0.89284,2.35437 0.29638,0.29638 0.55202,0.49088 0.80208,0.64648 0.0926,0.0778 0.49458,0.22599 0.63908,0.22971 0.20376,0.0334 0.46679,0.0592 0.80578,0.0427 0.80949,-0.0575 1.60601,-0.33343 2.32844,-1.12255 1.53748,-1.67085 4.79767,-5.15333 6.18695,-6.65005 0.40752,-0.43902 -0.0231,-0.51311 -0.3751,-0.50013 -2.85267,0.0816 -5.9091,2.79893 -7.98284,4.668 -0.25933,-2.80821 -0.68538,-9.0526 -2.76005,-11.42735 -0.2408,-0.26303 -0.53718,-0.25933 -0.53718,0.38531 z"
         style="fill:#ffffff;fill-opacity:1;fill-rule:evenodd;stroke:none"
         id="path50"
         inkscape:connector-curvature="0" /></g></g></svg>